<svg width="45" height="45" viewBox="0 0 45 45" fill="none" xmlns="http://www.w3.org/2000/svg">
<path d="M35.7188 9.20623C33.9995 7.47018 31.9519 6.09367 29.6953 5.15691C27.4387 4.22015 25.0183 3.74188 22.575 3.74998C12.3375 3.74998 3.99375 12.0937 3.99375 22.3312C3.99375 25.6125 4.85625 28.8 6.46875 31.6125L3.84375 41.25L13.6875 38.6625C16.4062 40.1437 19.4625 40.9312 22.575 40.9312C32.8125 40.9312 41.1563 32.5875 41.1563 22.35C41.1563 17.3812 39.225 12.7125 35.7188 9.20623ZM22.575 37.7812C19.8 37.7812 17.0813 37.0312 14.7 35.625L14.1375 35.2875L8.2875 36.825L9.84375 31.125L9.46875 30.5437C7.92665 28.082 7.10798 25.2361 7.10625 22.3312C7.10625 13.8187 14.0437 6.88123 22.5562 6.88123C26.6812 6.88123 30.5625 8.49373 33.4688 11.4187C34.908 12.851 36.0486 14.5547 36.8243 16.4312C37.6 18.3077 37.9954 20.3195 37.9875 22.35C38.025 30.8625 31.0875 37.7812 22.575 37.7812ZM31.05 26.2312C30.5812 26.0062 28.2937 24.8812 27.8812 24.7125C27.45 24.5625 27.15 24.4875 26.8313 24.9375C26.5125 25.4062 25.6312 26.4562 25.3687 26.7562C25.1062 27.075 24.825 27.1125 24.3562 26.8687C23.8875 26.6437 22.3875 26.1375 20.625 24.5625C19.2375 23.325 18.3187 21.8062 18.0375 21.3375C17.775 20.8687 18 20.625 18.2437 20.3812C18.45 20.175 18.7125 19.8375 18.9375 19.575C19.1625 19.3125 19.2563 19.1062 19.4062 18.8062C19.5563 18.4875 19.4812 18.225 19.3687 18C19.2562 17.775 18.3187 15.4875 17.9437 14.55C17.5687 13.65 17.175 13.7625 16.8938 13.7437H15.9937C15.675 13.7437 15.1875 13.8562 14.7562 14.325C14.3437 14.7937 13.1438 15.9187 13.1438 18.2062C13.1438 20.4937 14.8125 22.7062 15.0375 23.0062C15.2625 23.325 18.3187 28.0125 22.9688 30.0187C24.075 30.5062 24.9375 30.7875 25.6125 30.9937C26.7188 31.35 27.7313 31.2937 28.5375 31.1812C29.4375 31.05 31.2937 30.0562 31.6687 28.9687C32.0625 27.8812 32.0625 26.9625 31.9313 26.7562C31.8 26.55 31.5187 26.4562 31.05 26.2312Z" fill="black"/>
</svg>
